<svg id="Layer_1" data-name="Layer 1" xmlns="http://www.w3.org/2000/svg" viewBox="0 0 470.66 464.35"><defs><style>.cls-1{fill:#ffc400;}.cls-2{fill:#fff;}</style></defs><title>Logo_White+Yellow</title><path class="cls-1" d="M468.94,0,404.06,37.46l.26,91.88L470.66,91l-.06-23.31-39.89,23,0-12.1,33.81-19.52-.06-22.33L430.61,56.32l0-10.72L469,23.41ZM249.57,193.58c-.38,0-.76,0-1.13-.05a8.87,8.87,0,0,1-6.45-4.28c-1.63-2.59-2.41-6.18-2.42-10.81A38.2,38.2,0,0,1,241.93,165a42.79,42.79,0,0,1,6.4-11.69,30.58,30.58,0,0,1,9.07-8.08,15.81,15.81,0,0,1,7.7-2.5,9,9,0,0,1,1.38.11A8.63,8.63,0,0,1,273,147c1.55,2.56,2.41,6.09,2.42,10.72a40.9,40.9,0,0,1-2.36,13.58A41.92,41.92,0,0,1,266.59,183a31.91,31.91,0,0,1-9.06,8.1,16.07,16.07,0,0,1-8,2.44m-43.27-42-70.37,40.63.08,24.1L171.36,196,135,265.85l.05,19L181.53,258l26.29-15.56-.65-5L192,228.52l-10.41,5.37L170,240.57l36.34-69.86Zm73.5-38.72c-6.67,0-14.14,2.39-22.48,7.2a87.76,87.76,0,0,0-23.09,19.54,96.56,96.56,0,0,0-16,26.42,72.87,72.87,0,0,0-5.75,28c0,9.16,1.93,16.33,5.89,21.34s9.28,7.74,16.14,7.92h.31c6.79,0,14.39-2.38,22.82-7.25a89,89,0,0,0,23.19-19.5,96,96,0,0,0,16-26.5,74.46,74.46,0,0,0,5.75-28c0-9.16-2-16.28-5.89-21.34s-9.28-7.65-16.14-7.82h-.74M391,45,364.76,60.15l.12,41.81L334.37,77.7,312.29,90.45l.26,91.87,26.19-15.12-.12-41.71,30.51,24.16,22.17-12.8Z"/><path class="cls-2" d="M208.24,329.19l.26-91.77L181.62,221.9l-.26,91.77Zm63.2,6.16c0-4.83-3-8.92-8.88-12.33l-16.18-9.34,0,14.36,16.17,9.35c5.91,3.41,8.91,2.78,8.92-2m-25-42.13L259,300.43c5.9,3.42,8.82,2.73,8.83-1.78s-2.89-8.48-8.8-11.89l-12.5-7.22Zm48.32,45.24a36.29,36.29,0,0,1,3.81,16.09c0,8.07-2.95,12.59-8.7,13.7s-14.13-1.57-25.09-7.89l-45-26,.26-91.77,42.71,24.66c10.62,6.13,18.66,12.93,24.13,20.52s8.1,14.84,8.08,22.11c0,4.23-1,7.63-2.77,9.93s-4.64,3.53-8.33,3.47a55.76,55.76,0,0,1,10.93,15.18M405,418l0-12.09,33.81,19.52.07-22.33-33.81-19.53,0-10.72L443.54,395l.07-23.32-64.89-37.46L378.46,426l66.43,38.36L445,441ZM96.39,265.44l27,15.57.26-91.78-27-15.57ZM47.87,199.2,28.93,134.57,0,117.86,33.47,229.11,60,244.43l34-72.3L67.54,156.86ZM335,376.89l36,20.8-.07,24-63-36.38.26-91.78,27,15.57Z"/></svg>