<?xml version="1.0" encoding="utf-8"?>
<!-- Generator: Adobe Illustrator 23.0.4, SVG Export Plug-In . SVG Version: 6.00 Build 0)  -->
<svg version="1.1" id="Layer_1" xmlns="http://www.w3.org/2000/svg" xmlns:xlink="http://www.w3.org/1999/xlink" x="0px" y="0px"
	 viewBox="0 0 500 500" style="enable-background:new 0 0 500 500;" xml:space="preserve">
<style type="text/css">
	.st0{fill:#FFC400;}
	.st1{opacity:0.5;}
	.st2{fill:#FFFFFF;}
	.st3{opacity:0.5;fill:#FFFFFF;}
	.st4{opacity:0.5;fill:#FFC400;}
	.st5{opacity:0.75;}
</style>
<rect x="0.02" y="-2.93" class="st0" width="499.72" height="509.1"/>
<g>
	<path class="st1" d="M483.61,17.83l-64.89,37.46l0.26,91.87l66.35-38.3l-0.07-23.31l-39.89,23.03l-0.04-12.1l33.81-19.52
		l-0.06-22.33l-33.81,19.52l-0.03-10.72l38.43-22.19L483.61,17.83z M264.24,211.41c-0.38,0-0.76-0.02-1.13-0.06
		c-2.66-0.35-4.8-1.76-6.45-4.27c-1.64-2.6-2.41-6.19-2.42-10.81c-0.01-4.61,0.74-9.09,2.36-13.47c1.61-4.39,3.74-8.28,6.4-11.69
		c2.73-3.54,5.72-6.16,9.07-8.08c2.77-1.61,5.37-2.5,7.7-2.5c0.47,0,0.93,0.04,1.38,0.11c2.74,0.28,4.89,1.7,6.53,4.21
		c1.55,2.56,2.41,6.09,2.42,10.72c0.01,4.63-0.83,9.15-2.36,13.58c-1.61,4.38-3.75,8.28-6.48,11.73c-2.64,3.4-5.72,6.16-9.05,8.09
		C269.31,210.62,266.67,211.41,264.24,211.41 M220.97,169.46l-70.37,40.62l0.07,24.1l35.36-20.41l-36.41,69.9l0.05,18.98
		l46.53-26.86l26.29-15.55l-0.65-5.04l-15.17-8.86l-10.41,5.37l-11.56,6.68l36.34-69.85L220.97,169.46z M294.46,130.73
		c-6.67,0-14.14,2.39-22.47,7.21c-8.56,4.95-16.25,11.46-23.09,19.54c-6.84,8.08-12.22,16.9-16.05,26.41
		c-3.91,9.55-5.77,18.9-5.75,28.05c0.02,9.15,1.93,16.32,5.89,21.33c3.88,5.16,9.28,7.74,16.14,7.92c0.1,0,0.2,0,0.3,0
		c6.79,0,14.39-2.38,22.82-7.25c8.65-4.99,16.35-11.51,23.19-19.5c6.83-8.08,12.2-16.9,16.04-26.5c3.83-9.51,5.77-18.91,5.75-28.05
		c-0.02-9.15-2.02-16.28-5.89-21.33c-3.88-5.06-9.28-7.65-16.14-7.83C294.96,130.74,294.71,130.73,294.46,130.73 M405.71,62.8
		l-26.28,15.17l0.12,41.81l-30.51-24.26l-22.09,12.75l0.26,91.87l26.2-15.12l-0.12-41.71l30.51,24.16l22.17-12.8L405.71,62.8z"/>
	<path d="M222.91,347.02l0.26-91.78l-26.88-15.52l-0.26,91.78L222.91,347.02z M286.11,353.17c0.01-4.82-2.96-8.92-8.88-12.33
		l-16.18-9.34l-0.04,14.36l16.18,9.35C283.1,358.62,286.1,357.99,286.11,353.17 M261.11,311.05l12.5,7.21
		c5.91,3.42,8.82,2.73,8.83-1.78c0.01-4.53-2.89-8.48-8.8-11.88l-12.5-7.22L261.11,311.05z M309.43,356.28
		c2.56,5.31,3.84,10.68,3.81,16.09c-0.01,8.07-2.95,12.59-8.7,13.71c-5.83,1.06-14.14-1.57-25.1-7.9l-45.03-26l0.26-91.78
		l42.71,24.67c10.62,6.13,18.66,12.93,24.13,20.52c5.37,7.44,8.11,14.84,8.08,22.11c-0.01,4.23-0.96,7.63-2.77,9.93
		c-1.89,2.36-4.64,3.53-8.33,3.47C303.2,345.89,306.87,350.87,309.43,356.28 M419.65,435.78l0.04-12.1l33.81,19.52l0.06-22.33
		l-33.81-19.52l0.03-10.72l38.44,22.19l0.07-23.31l-64.89-37.47l-0.26,91.78l66.44,38.36l0.06-23.31L419.65,435.78z M111.06,283.26
		l26.97,15.57l0.26-91.78l-26.97-15.57L111.06,283.26z M62.54,217.02L43.6,152.39l-28.93-16.71l33.47,111.25l26.54,15.32
		l33.99-72.31l-26.45-15.27L62.54,217.02z M349.71,394.71l36.04,20.81l-0.07,24l-63.01-36.38l0.26-91.78l26.96,15.57L349.71,394.71z
		"/>
</g>
</svg>
